%FSLAX42Y42*%
%MOMM*%
G71*
G01*
G75*
G04 Layer_Physical_Order=2*
%ADD10C,0.45*%
%ADD11R,0.95X0.90*%
%ADD12R,0.30X1.50*%
%ADD13O,0.30X1.50*%
%ADD14R,2.00X0.80*%
%ADD15C,0.30*%
%ADD16C,0.25*%
%ADD17C,1.75*%
%ADD18R,1.75X1.75*%
%ADD19C,1.25*%
%ADD20C,1.40*%
%ADD21C,1.20*%
%ADD22R,2.00X2.00*%
D10*
X8608Y7730D02*
G03*
X8832Y7730I112J3D01*
G01*
X8408Y7785D02*
G03*
X8568Y7744I102J68D01*
G01*
X8581Y7503D02*
G03*
X8632Y7603I-71J100D01*
G01*
G03*
X8439Y7503I-123J0D01*
G01*
X8632Y7403D02*
G03*
X8581Y7503I-123J0D01*
G01*
X8275Y7965D02*
G03*
X8207Y7920I25J-112D01*
G01*
X7888D02*
G03*
X7840Y7900I0J-68D01*
G01*
X8207Y7785D02*
G03*
X8393Y7785I93J68D01*
G01*
X7888Y7920D02*
G03*
X7840Y7900I0J-68D01*
G01*
X7818Y7670D02*
G03*
X7816Y7686I-112J0D01*
G01*
X7721Y7781D02*
G03*
X7818Y7670I-16J-111D01*
G01*
X8832Y7272D02*
G03*
X8607Y7272I-112J0D01*
G01*
X8439Y7503D02*
G03*
X8632Y7403I71J-100D01*
G01*
X8568Y7261D02*
G03*
X8401Y7208I-57J-108D01*
G01*
Y7097D02*
G03*
X8475Y7035I109J55D01*
G01*
X8401Y7208D02*
G03*
X8401Y7097I-101J-55D01*
G01*
X7103Y7497D02*
G03*
X7042Y7612I-140J0D01*
G01*
X6140Y7497D02*
G03*
X6080Y7612I-140J0D01*
G01*
X7026Y7372D02*
G03*
X7103Y7497I-63J125D01*
G01*
Y7247D02*
G03*
X7026Y7372I-140J0D01*
G01*
X6883Y7612D02*
G03*
X6899Y7372I80J-115D01*
G01*
G03*
X7103Y7247I63J-125D01*
G01*
X6063Y7372D02*
G03*
X6140Y7497I-63J125D01*
G01*
X5920Y7612D02*
G03*
X5937Y7372I80J-115D01*
G01*
X6140Y7247D02*
G03*
X6063Y7372I-140J0D01*
G01*
X5937D02*
G03*
X6140Y7247I63J-125D01*
G01*
X8872Y7965D02*
X8965D01*
X8872Y7960D02*
X8965D01*
X8872Y7920D02*
X8965D01*
X8872Y7880D02*
X8965D01*
X8872Y7840D02*
X8965D01*
X8872Y7800D02*
X8965D01*
X8872Y7760D02*
X8965D01*
X8832Y7720D02*
X8965D01*
X8872Y7730D02*
Y7965D01*
X8832Y7730D02*
X8872D01*
X8568D02*
Y7744D01*
Y7730D02*
X8608D01*
X8600Y7686D02*
Y7730D01*
X8560Y7714D02*
Y7741D01*
X8819Y7680D02*
X8965D01*
X8784Y7640D02*
X8965D01*
X8632Y7600D02*
X8965D01*
X8627Y7640D02*
X8656D01*
X8625Y7560D02*
X8965D01*
X8760Y7378D02*
Y7627D01*
X8632Y7400D02*
X8965D01*
X8791Y7360D02*
X8965D01*
X8680Y7378D02*
Y7627D01*
X8720Y7385D02*
Y7620D01*
X8601Y7520D02*
X8965D01*
X8545Y7720D02*
X8608D01*
X8605Y7680D02*
X8621D01*
X8605Y7480D02*
X8965D01*
X8627Y7440D02*
X8965D01*
X8600Y7486D02*
Y7519D01*
X8240Y7951D02*
Y7965D01*
X8200Y7920D02*
Y7965D01*
X8160Y7920D02*
Y7965D01*
X8120Y7920D02*
Y7965D01*
X8080Y7920D02*
Y7965D01*
X8040Y7920D02*
Y7965D01*
X8000Y7920D02*
Y7965D01*
X7960Y7920D02*
Y7965D01*
X7920Y7920D02*
Y7965D01*
X7880Y7920D02*
Y7965D01*
X7888Y7920D02*
X8207D01*
X7840Y7900D02*
Y7965D01*
X7800Y7860D02*
Y7965D01*
X7760Y7820D02*
Y7965D01*
X7720Y7781D02*
Y7965D01*
X7680Y7780D02*
Y7965D01*
X7640Y7762D02*
Y7965D01*
X7600Y7710D02*
Y7965D01*
X8393Y7785D02*
X8408D01*
X8368Y7760D02*
X8430D01*
X7915Y7785D02*
X8207D01*
X7890Y7760D02*
X8232D01*
X8480Y7721D02*
Y7734D01*
X8440Y7703D02*
Y7752D01*
X7850Y7720D02*
X8475D01*
X8400Y7656D02*
Y7785D01*
Y7456D02*
Y7549D01*
X7816Y7686D02*
X7915Y7785D01*
X7817Y7680D02*
X8415D01*
X7721Y7781D02*
X7840Y7900D01*
X7813Y7640D02*
X8393D01*
X7729Y7560D02*
X8395D01*
X7793Y7600D02*
X8388D01*
X8832Y7280D02*
X8965D01*
X8822Y7320D02*
X8965D01*
X8832Y7272D02*
X8872D01*
X8840D02*
Y7730D01*
X8800Y7352D02*
Y7653D01*
X8965Y7035D02*
Y7965D01*
X8960Y7035D02*
Y7965D01*
X8920Y7035D02*
Y7965D01*
X8880Y7035D02*
Y7965D01*
X8872Y7035D02*
Y7272D01*
X8625Y7360D02*
X8649D01*
X8640Y7352D02*
Y7653D01*
X8601Y7320D02*
X8618D01*
X8600Y7272D02*
Y7319D01*
X8560Y7264D02*
Y7291D01*
X8440Y7253D02*
Y7302D01*
X8480Y7271D02*
Y7284D01*
X8872Y7240D02*
X8965D01*
X8872Y7200D02*
X8965D01*
X8872Y7160D02*
X8965D01*
X8872Y7120D02*
X8965D01*
X8872Y7080D02*
X8965D01*
X8872Y7040D02*
X8965D01*
X8872Y7035D02*
X8965D01*
X8568Y7272D02*
X8607D01*
X8568Y7261D02*
Y7272D01*
X8375Y7240D02*
X8424D01*
X8324Y7040D02*
X8462D01*
X8389Y7080D02*
X8411D01*
X8440Y7035D02*
Y7052D01*
X8360Y7251D02*
Y7754D01*
X8200Y7209D02*
Y7785D01*
X8240Y7251D02*
Y7754D01*
X8160Y7035D02*
Y7785D01*
X8120Y7035D02*
Y7785D01*
X8080Y7035D02*
Y7785D01*
X8040Y7035D02*
Y7785D01*
X8000Y7035D02*
Y7785D01*
X7960Y7035D02*
Y7785D01*
X7920Y7035D02*
Y7785D01*
X7560Y7035D02*
Y7965D01*
X7520Y7035D02*
Y7965D01*
X7480Y7035D02*
Y7965D01*
X7440Y7035D02*
Y7965D01*
X7400Y7035D02*
Y7965D01*
X7360Y7035D02*
Y7965D01*
X7320Y7035D02*
Y7965D01*
X7280Y7035D02*
Y7965D01*
X7240Y7035D02*
Y7965D01*
X8400Y7209D02*
Y7349D01*
X8320Y7266D02*
Y7739D01*
X8280Y7266D02*
Y7739D01*
X8400Y7035D02*
Y7096D01*
X8360Y7035D02*
Y7054D01*
X8200Y7035D02*
Y7096D01*
X8240Y7035D02*
Y7054D01*
X7880Y7035D02*
Y7750D01*
X7840Y7035D02*
Y7710D01*
X7800Y7035D02*
Y7610D01*
X7760Y7035D02*
Y7572D01*
X7680Y7035D02*
Y7560D01*
X7720Y7035D02*
Y7559D01*
X7600Y7035D02*
Y7630D01*
X7640Y7035D02*
Y7578D01*
X7103Y7880D02*
X7820D01*
X7080Y7893D02*
Y7965D01*
X7103Y7840D02*
X7780D01*
X7040Y7893D02*
Y7965D01*
X7000Y7893D02*
Y7965D01*
X7103Y7612D02*
Y7893D01*
Y7800D02*
X7740D01*
X7103Y7760D02*
X7637D01*
X5833Y7965D02*
X8275D01*
X5833Y7960D02*
X8259D01*
X5833Y7920D02*
X7886D01*
X6960Y7893D02*
Y7965D01*
X6920Y7893D02*
Y7965D01*
X6880Y7893D02*
Y7965D01*
X6840Y7893D02*
Y7965D01*
X6822Y7893D02*
X7103D01*
X6140Y7880D02*
X6822D01*
X6140Y7840D02*
X6822D01*
X7103Y7720D02*
X7604D01*
X7103Y7640D02*
X7597D01*
X7058Y7600D02*
X7617D01*
X7103Y7680D02*
X7593D01*
X7080Y7574D02*
Y7612D01*
X7101Y7520D02*
X8419D01*
X7101Y7480D02*
X8415D01*
X7090Y7440D02*
X8393D01*
X7088Y7560D02*
X7681D01*
X7063Y7400D02*
X8388D01*
X7042Y7612D02*
X7103D01*
X6822D02*
X6883D01*
X6840Y7565D02*
Y7612D01*
X6095Y7600D02*
X6867D01*
X6100Y7400D02*
X6862D01*
X6125Y7560D02*
X6837D01*
X6128Y7440D02*
X6835D01*
X6120Y7893D02*
Y7965D01*
X6080Y7893D02*
Y7965D01*
X6140Y7800D02*
X6822D01*
X6040Y7893D02*
Y7965D01*
X6000Y7893D02*
Y7965D01*
X6822Y7612D02*
Y7893D01*
X6140Y7612D02*
Y7893D01*
Y7760D02*
X6822D01*
X5960Y7893D02*
Y7965D01*
X5920Y7893D02*
Y7965D01*
X5860Y7893D02*
X6140D01*
X5880D02*
Y7965D01*
X5833Y7880D02*
X5860D01*
X5833Y7840D02*
X5860D01*
X5833Y7800D02*
X5860D01*
Y7612D02*
Y7893D01*
X5833Y7760D02*
X5860D01*
X6140Y7720D02*
X6822D01*
X6140Y7680D02*
X6822D01*
X6140Y7640D02*
X6822D01*
X6080Y7612D02*
X6140D01*
X6138Y7520D02*
X6824D01*
X6139Y7480D02*
X6824D01*
X6120Y7570D02*
Y7612D01*
X5880Y7570D02*
Y7612D01*
X5860D02*
X5920D01*
X5833Y7720D02*
X5860D01*
X5833Y7600D02*
X5905D01*
X5833Y7680D02*
X5860D01*
X5833Y7640D02*
X5860D01*
X5833Y7560D02*
X5875D01*
X5833Y7440D02*
X5872D01*
X5833Y7520D02*
X5862D01*
X5833Y7480D02*
X5861D01*
X7046Y7360D02*
X8395D01*
X7082Y7320D02*
X8419D01*
X7080Y7324D02*
Y7421D01*
X7040Y7364D02*
Y7381D01*
X7200Y7035D02*
Y7965D01*
X7160Y7035D02*
Y7965D01*
X7099Y7280D02*
X8608D01*
X7120Y7035D02*
Y7965D01*
X6880Y7361D02*
Y7384D01*
X6083Y7360D02*
X6879D01*
X6840Y7315D02*
Y7430D01*
X6120Y7320D02*
X6843D01*
X6800Y7035D02*
Y7965D01*
X6760Y7035D02*
Y7965D01*
X6720Y7035D02*
Y7965D01*
X6680Y7035D02*
Y7965D01*
X7102Y7240D02*
X8225D01*
X7094Y7200D02*
X8195D01*
X7072Y7160D02*
X8185D01*
X7080Y7035D02*
Y7171D01*
X7020Y7120D02*
X8190D01*
X7040Y7035D02*
Y7131D01*
X7000Y7035D02*
Y7113D01*
X6960Y7035D02*
Y7108D01*
X6880Y7035D02*
Y7134D01*
X6920Y7035D02*
Y7114D01*
X6132Y7200D02*
X6831D01*
X6109Y7160D02*
X6853D01*
X6058Y7120D02*
X6905D01*
X6136Y7280D02*
X6826D01*
X6140Y7240D02*
X6823D01*
X5833Y7040D02*
X8276D01*
X5833Y7035D02*
X8475D01*
X6840D02*
Y7180D01*
X5833Y7080D02*
X8211D01*
X6640Y7035D02*
Y7965D01*
X6600Y7035D02*
Y7965D01*
X6560Y7035D02*
Y7965D01*
X6520Y7035D02*
Y7965D01*
X6480Y7035D02*
Y7965D01*
X6440Y7035D02*
Y7965D01*
X6400Y7035D02*
Y7965D01*
X6360Y7035D02*
Y7965D01*
X6320Y7035D02*
Y7965D01*
X6280Y7035D02*
Y7965D01*
X6240Y7035D02*
Y7965D01*
X6120Y7320D02*
Y7425D01*
X5880Y7320D02*
Y7425D01*
X6200Y7035D02*
Y7965D01*
X6160Y7035D02*
Y7965D01*
X5840Y7035D02*
Y7965D01*
X5833Y7035D02*
Y7965D01*
X6080Y7362D02*
Y7383D01*
X6120Y7035D02*
Y7175D01*
X5920Y7362D02*
Y7383D01*
X6080Y7035D02*
Y7133D01*
X6040Y7035D02*
Y7113D01*
X5960Y7035D02*
Y7113D01*
X6000Y7035D02*
Y7107D01*
X5880Y7035D02*
Y7175D01*
X5920Y7035D02*
Y7133D01*
X5833Y7400D02*
X5900D01*
X5833Y7360D02*
X5917D01*
X5833Y7320D02*
X5880D01*
X5833Y7280D02*
X5864D01*
X5833Y7240D02*
X5860D01*
X5833Y7120D02*
X5942D01*
X5833Y7200D02*
X5868D01*
X5833Y7160D02*
X5891D01*
D15*
X7888Y7853D02*
X8510D01*
X7705Y7670D02*
X7888Y7853D01*
X7705Y7688D02*
X7705Y7670D01*
D16*
X8720Y7882D02*
X8850D01*
X8720Y7732D02*
X8810D01*
X8630D02*
X8720D01*
Y7643D02*
Y7732D01*
Y7272D02*
Y7362D01*
Y7272D02*
X8810D01*
X8630D02*
X8720D01*
Y7120D02*
X8850D01*
X8510Y7153D02*
Y7253D01*
X8300Y7153D02*
Y7245D01*
X8207Y7153D02*
X8300D01*
Y7060D02*
Y7153D01*
X6962Y7753D02*
Y7870D01*
Y7753D02*
X7080D01*
X6845D02*
X6962D01*
X6000D02*
Y7870D01*
Y7753D02*
X6117D01*
X5883D02*
X6000D01*
D17*
Y7497D02*
D03*
Y7247D02*
D03*
X6962D02*
D03*
Y7497D02*
D03*
D18*
X6000Y7753D02*
D03*
X6962D02*
D03*
D19*
X8300Y7153D02*
D03*
Y7853D02*
D03*
D20*
X8510D02*
D03*
Y7603D02*
D03*
Y7403D02*
D03*
Y7153D02*
D03*
D21*
X8720Y7272D02*
D03*
Y7732D02*
D03*
X8720Y7503D02*
D03*
X7730Y7505D02*
D03*
X7380Y7693D02*
D03*
X7575Y7332D02*
D03*
X7705Y7670D02*
D03*
D22*
X8720Y7882D02*
D03*
Y7120D02*
D03*
M02*
