%FSLAX42Y42*%
%MOMM*%
G71*
G01*
G75*
G04 Layer_Physical_Order=1*
%ADD10C,0.45*%
%ADD11R,0.95X0.90*%
%ADD12R,0.30X1.50*%
%ADD13O,0.30X1.50*%
%ADD14R,2.00X0.80*%
%ADD15C,0.30*%
%ADD16C,0.25*%
%ADD17C,1.75*%
%ADD18R,1.75X1.75*%
%ADD19C,1.25*%
%ADD20C,1.40*%
%ADD21C,1.20*%
D10*
X8632Y7853D02*
G03*
X8612Y7920I-123J0D01*
G01*
G03*
X8590Y7945I-102J-67D01*
G01*
X8612Y7785D02*
G03*
X8632Y7853I-102J67D01*
G01*
X8832Y7732D02*
G03*
X8612Y7766I-112J0D01*
G01*
X8611Y7760D02*
G03*
X8832Y7732I109J-28D01*
G01*
X8590Y7760D02*
G03*
X8612Y7785I-80J93D01*
G01*
X8632Y7603D02*
G03*
X8612Y7670I-123J0D01*
G01*
G03*
X8590Y7695I-102J-67D01*
G01*
X8612Y7535D02*
G03*
X8632Y7603I-102J67D01*
G01*
Y7403D02*
G03*
X8612Y7470I-123J0D01*
G01*
X8590Y7945D02*
G03*
X8559Y7965I-80J-93D01*
G01*
X8430Y7760D02*
G03*
X8590Y7760I80J93D01*
G01*
Y7695D02*
G03*
X8430Y7695I-80J-93D01*
G01*
X8293Y7738D02*
G03*
X8368Y7760I8J115D01*
G01*
X7803Y7731D02*
G03*
X7833Y7723I32J59D01*
G01*
X7818Y7670D02*
G03*
X7800Y7730I-112J0D01*
G01*
X8590Y7510D02*
G03*
X8612Y7535I-80J93D01*
G01*
X8581Y7503D02*
G03*
X8590Y7510I-71J100D01*
G01*
X8612Y7470D02*
G03*
X8590Y7495I-102J-67D01*
G01*
G03*
X8581Y7503I-80J-93D01*
G01*
X7833Y7452D02*
G03*
X7852Y7405I68J0D01*
G01*
X7833Y7452D02*
G03*
X7852Y7405I68J0D01*
G01*
X7689Y7559D02*
G03*
X7818Y7670I16J111D01*
G01*
X8612Y7335D02*
G03*
X8632Y7403I-102J67D01*
G01*
X8590Y7310D02*
G03*
X8612Y7335I-80J93D01*
G01*
X8832Y7272D02*
G03*
X8611Y7245I-112J0D01*
G01*
X8612Y7239D02*
G03*
X8832Y7272I108J33D01*
G01*
X8430Y7310D02*
G03*
X8590Y7310I80J93D01*
G01*
Y7245D02*
G03*
X8430Y7245I-80J-93D01*
G01*
X8632Y7153D02*
G03*
X8612Y7220I-123J0D01*
G01*
Y7085D02*
G03*
X8632Y7153I-102J67D01*
G01*
X8612Y7220D02*
G03*
X8590Y7245I-102J-67D01*
G01*
Y7060D02*
G03*
X8612Y7085I-80J93D01*
G01*
X7982Y7275D02*
G03*
X7933Y7269I-17J-65D01*
G01*
G03*
X7868Y7269I-32J-59D01*
G01*
G03*
X7803Y7269I-32J-59D01*
G01*
G03*
X7738Y7269I-32J-59D01*
G01*
X8368Y7245D02*
G03*
X8293Y7267I-68J-93D01*
G01*
X8545Y7035D02*
G03*
X8590Y7060I-35J117D01*
G01*
X8430D02*
G03*
X8475Y7035I80J93D01*
G01*
X8239Y7055D02*
G03*
X8368Y7060I61J98D01*
G01*
X7738Y7269D02*
G03*
X7673Y7269I-32J-59D01*
G01*
X8069Y7035D02*
G03*
X8093Y7064I-39J55D01*
G01*
X7146Y7965D02*
G03*
X7118Y7910I39J-55D01*
G01*
Y7790D02*
G03*
X7218Y7731I68J0D01*
G01*
X7543D02*
G03*
X7608Y7731I32J59D01*
G01*
X7478D02*
G03*
X7543Y7731I32J59D01*
G01*
X7413D02*
G03*
X7478Y7731I32J59D01*
G01*
X7347D02*
G03*
X7413Y7731I32J59D01*
G01*
X7282D02*
G03*
X7347Y7731I32J59D01*
G01*
X7218D02*
G03*
X7282Y7731I32J59D01*
G01*
X7610Y7730D02*
G03*
X7594Y7654I95J-60D01*
G01*
X7085Y7565D02*
G03*
X7042Y7612I-123J-68D01*
G01*
X6883D02*
G03*
X6840Y7565I80J-115D01*
G01*
X6123D02*
G03*
X6080Y7612I-123J-68D01*
G01*
X7160Y7545D02*
G03*
X7112Y7565I-48J-48D01*
G01*
X7160Y7545D02*
G03*
X7112Y7565I-48J-48D01*
G01*
X7253Y7425D02*
G03*
X7233Y7473I-68J0D01*
G01*
X7253Y7425D02*
G03*
X7233Y7473I-68J0D01*
G01*
X7332Y7393D02*
G03*
X7312Y7345I48J-48D01*
G01*
X7332Y7393D02*
G03*
X7312Y7345I48J-48D01*
G01*
X7673Y7269D02*
G03*
X7608Y7269I-32J-59D01*
G01*
G03*
X7543Y7269I-32J-59D01*
G01*
G03*
X7478Y7269I-32J-59D01*
G01*
G03*
X7447Y7277I-32J-59D01*
G01*
X7312D02*
G03*
X7282Y7269I3J-67D01*
G01*
G03*
X7253Y7277I-32J-59D01*
G01*
X6895Y7100D02*
G03*
X6915Y7052I68J0D01*
G01*
X6840Y7180D02*
G03*
X6895Y7125I123J68D01*
G01*
X5920Y7612D02*
G03*
X5937Y7372I80J-115D01*
G01*
G03*
X6123Y7180I63J-125D01*
G01*
X6895Y7100D02*
G03*
X6915Y7052I68J0D01*
G01*
X8760Y7838D02*
Y7965D01*
X8720Y7845D02*
Y7965D01*
X8753Y7840D02*
X8965D01*
X8629Y7880D02*
X8965D01*
X8680Y7838D02*
Y7965D01*
X8612Y7920D02*
Y7945D01*
X8632Y7840D02*
X8687D01*
X8810Y7800D02*
X8965D01*
X8800Y7812D02*
Y7965D01*
X8829Y7760D02*
X8965D01*
X8640Y7812D02*
Y7965D01*
X8621Y7800D02*
X8630D01*
X8569Y7960D02*
X8965D01*
X8559Y7965D02*
X8965D01*
X8612Y7920D02*
X8965D01*
X8590Y7945D02*
X8612D01*
Y7766D02*
Y7785D01*
X8590Y7760D02*
X8611D01*
X8590Y7760D02*
X8611D01*
X8832Y7720D02*
X8965D01*
X8819Y7680D02*
X8965D01*
X8784Y7640D02*
X8965D01*
X8627D02*
X8656D01*
X8632Y7600D02*
X8965D01*
X8632Y7400D02*
X8965D01*
X8791Y7360D02*
X8965D01*
X8760Y7378D02*
Y7627D01*
X8680Y7378D02*
Y7627D01*
X8720Y7385D02*
Y7620D01*
X8612Y7680D02*
X8621D01*
X8625Y7560D02*
X8965D01*
X8612Y7670D02*
Y7695D01*
X8590D02*
X8612D01*
Y7520D02*
X8965D01*
X8612Y7480D02*
X8965D01*
X8627Y7440D02*
X8965D01*
X8625Y7360D02*
X8649D01*
X8600Y7945D02*
Y7965D01*
Y7936D02*
Y7945D01*
Y7760D02*
Y7769D01*
X8545Y7720D02*
X8608D01*
X8560Y7714D02*
Y7741D01*
X8600Y7695D02*
Y7760D01*
Y7686D02*
Y7695D01*
X8440Y7703D02*
Y7752D01*
X8400Y7695D02*
Y7760D01*
X8480Y7721D02*
Y7734D01*
X8368Y7760D02*
X8430D01*
X8368Y7760D02*
X8430D01*
X8293Y7720D02*
X8475D01*
X8360Y7695D02*
Y7754D01*
X8320Y7695D02*
Y7739D01*
X8293Y7670D02*
Y7738D01*
X7806Y7720D02*
X7833D01*
Y7452D02*
Y7723D01*
X8612Y7510D02*
Y7535D01*
X8601Y7520D02*
X8612D01*
X8590Y7510D02*
X8612D01*
X8600D02*
Y7519D01*
X8307Y7695D02*
X8430D01*
X8612Y7470D02*
Y7495D01*
X8590D02*
X8612D01*
X8600D02*
Y7510D01*
Y7486D02*
Y7495D01*
X8307Y7670D02*
Y7695D01*
X8293Y7680D02*
X8307D01*
X8293Y7670D02*
X8307D01*
X7817Y7680D02*
X7833D01*
X7813Y7640D02*
X7833D01*
X7793Y7600D02*
X7833D01*
X7729Y7560D02*
X7833D01*
X7650Y7520D02*
X7833D01*
X8822Y7320D02*
X8965D01*
X8800Y7352D02*
Y7653D01*
X8832Y7280D02*
X8965D01*
X8640Y7352D02*
Y7653D01*
X8965Y7035D02*
Y7965D01*
X8960Y7035D02*
Y7965D01*
X8920Y7035D02*
Y7965D01*
X8880Y7035D02*
Y7965D01*
X8840Y7035D02*
Y7965D01*
X8612Y7310D02*
Y7335D01*
X8601Y7320D02*
X8612D01*
X8600Y7310D02*
Y7319D01*
X8590Y7310D02*
X8612D01*
X8293Y7280D02*
X8608D01*
X8600Y7245D02*
Y7310D01*
X8828Y7240D02*
X8965D01*
X8806Y7200D02*
X8965D01*
X8632Y7160D02*
X8965D01*
X8628Y7120D02*
X8965D01*
X8612Y7220D02*
Y7239D01*
X8623Y7200D02*
X8634D01*
X8800Y7035D02*
Y7193D01*
X8760Y7035D02*
Y7167D01*
X8720Y7035D02*
Y7160D01*
X8680Y7035D02*
Y7167D01*
X8640Y7035D02*
Y7193D01*
X8590Y7245D02*
X8611D01*
X8612Y7080D02*
X8965D01*
X8600Y7236D02*
Y7245D01*
X8612Y7060D02*
Y7085D01*
X8558Y7040D02*
X8965D01*
X8545Y7035D02*
X8965D01*
X8600Y7060D02*
Y7069D01*
X8590Y7060D02*
X8612D01*
X8600Y7035D02*
Y7060D01*
X8307Y7310D02*
X8430D01*
X8293Y7335D02*
X8307D01*
X8560Y7264D02*
Y7291D01*
X8480Y7271D02*
Y7284D01*
X8307Y7310D02*
Y7335D01*
X8293Y7320D02*
X8307D01*
X7960Y7277D02*
Y7297D01*
X8440Y7253D02*
Y7302D01*
X8400Y7245D02*
Y7310D01*
X8360Y7251D02*
Y7310D01*
X8320Y7266D02*
Y7310D01*
X8293Y7267D02*
Y7335D01*
X7880Y7274D02*
Y7377D01*
X7852Y7405D02*
X7982Y7275D01*
X7920Y7274D02*
Y7337D01*
X7760Y7277D02*
Y7572D01*
X7720Y7276D02*
Y7559D01*
X7840Y7277D02*
Y7422D01*
X7800Y7270D02*
Y7610D01*
X7680Y7273D02*
Y7550D01*
X7640Y7278D02*
Y7510D01*
X8368Y7245D02*
X8430D01*
X8368Y7060D02*
X8430D01*
X8324Y7040D02*
X8462D01*
X8440Y7035D02*
Y7052D01*
X8400Y7035D02*
Y7060D01*
X8360Y7035D02*
Y7054D01*
X8240Y7035D02*
Y7054D01*
X8093Y7055D02*
X8239D01*
X8075Y7040D02*
X8276D01*
X8093Y7055D02*
Y7064D01*
X8200Y7035D02*
Y7055D01*
X8160Y7035D02*
Y7055D01*
X8069Y7035D02*
X8475D01*
X8120D02*
Y7055D01*
X8080Y7035D02*
Y7045D01*
X7120Y7928D02*
Y7965D01*
X7103Y7880D02*
X7118D01*
X7103Y7840D02*
X7118D01*
X7080Y7893D02*
Y7965D01*
X7040Y7893D02*
Y7965D01*
X7103Y7800D02*
X7118D01*
X7103Y7760D02*
X7125D01*
X7118Y7790D02*
Y7910D01*
X7103Y7612D02*
Y7893D01*
X7120Y7565D02*
Y7772D01*
X5833Y7965D02*
X7146D01*
X5833Y7960D02*
X7140D01*
X7000Y7893D02*
Y7965D01*
X5833Y7920D02*
X7118D01*
X6960Y7893D02*
Y7965D01*
X6920Y7893D02*
Y7965D01*
X6880Y7893D02*
Y7965D01*
X6822Y7893D02*
X7103D01*
X6840D02*
Y7965D01*
X6140Y7880D02*
X6822D01*
X6140Y7840D02*
X6822D01*
X7103Y7720D02*
X7604D01*
X7600Y7710D02*
Y7727D01*
X7103Y7680D02*
X7593D01*
X7560Y7620D02*
Y7724D01*
X7520Y7580D02*
Y7723D01*
X7138Y7560D02*
X7500D01*
X7103Y7640D02*
X7580D01*
X7042Y7612D02*
X7103D01*
X7058Y7600D02*
X7540D01*
X6822Y7612D02*
X6883D01*
X6095Y7600D02*
X6867D01*
X7080Y7574D02*
Y7612D01*
X7085Y7565D02*
X7112D01*
X6840Y7565D02*
Y7612D01*
X6123Y7565D02*
X6840D01*
X6800D02*
Y7965D01*
X6760Y7565D02*
Y7965D01*
X6822Y7612D02*
Y7893D01*
X6720Y7565D02*
Y7965D01*
X6680Y7565D02*
Y7965D01*
X6640Y7565D02*
Y7965D01*
X6600Y7565D02*
Y7965D01*
X6560Y7565D02*
Y7965D01*
X6520Y7565D02*
Y7965D01*
X6480Y7565D02*
Y7965D01*
X6440Y7565D02*
Y7965D01*
X6400Y7565D02*
Y7965D01*
X6360Y7565D02*
Y7965D01*
X6120Y7893D02*
Y7965D01*
X6080Y7893D02*
Y7965D01*
X6040Y7893D02*
Y7965D01*
X6000Y7893D02*
Y7965D01*
X5960Y7893D02*
Y7965D01*
X5920Y7893D02*
Y7965D01*
X6320Y7565D02*
Y7965D01*
X6280Y7565D02*
Y7965D01*
X6240Y7565D02*
Y7965D01*
X6200Y7565D02*
Y7965D01*
X6160Y7565D02*
Y7965D01*
X5880Y7893D02*
Y7965D01*
X6140Y7800D02*
X6822D01*
X6140Y7760D02*
X6822D01*
X6140Y7720D02*
X6822D01*
X6140Y7680D02*
X6822D01*
X6140Y7612D02*
Y7893D01*
Y7640D02*
X6822D01*
X6080Y7612D02*
X6140D01*
X6120Y7570D02*
Y7612D01*
X5880Y7570D02*
Y7612D01*
X5860Y7893D02*
X6140D01*
X5833Y7880D02*
X5860D01*
X5833Y7840D02*
X5860D01*
X5833Y7800D02*
X5860D01*
X5833Y7760D02*
X5860D01*
X5833Y7720D02*
X5860D01*
Y7612D02*
X5920D01*
X5833Y7600D02*
X5905D01*
X5833Y7560D02*
X5875D01*
X5860Y7612D02*
Y7893D01*
X5833Y7680D02*
X5860D01*
X5833Y7640D02*
X5860D01*
X7610Y7480D02*
X7833D01*
X7480Y7540D02*
Y7730D01*
X7570Y7440D02*
X7834D01*
X7530Y7400D02*
X7857D01*
X7440Y7500D02*
Y7723D01*
X7400Y7460D02*
Y7726D01*
X7360Y7420D02*
Y7726D01*
X7447Y7317D02*
X7689Y7559D01*
X7332Y7393D02*
X7594Y7654D01*
X7600Y7273D02*
Y7470D01*
X7320Y7376D02*
Y7723D01*
X7280Y7270D02*
Y7730D01*
X7560Y7276D02*
Y7430D01*
X7200Y7505D02*
Y7724D01*
X7185Y7520D02*
X7460D01*
X7225Y7480D02*
X7420D01*
X7160Y7545D02*
Y7727D01*
X7251Y7440D02*
X7380D01*
X7240Y7464D02*
Y7723D01*
X7160Y7545D02*
X7233Y7473D01*
X7253Y7425D02*
X7253Y7278D01*
X7520Y7277D02*
Y7390D01*
X7490Y7360D02*
X7897D01*
X7450Y7320D02*
X7937D01*
X7447Y7280D02*
X7977D01*
X7447Y7277D02*
Y7317D01*
X7480Y7270D02*
Y7350D01*
X7253Y7400D02*
X7340D01*
X7253Y7360D02*
X7314D01*
X7253Y7320D02*
X7312D01*
Y7277D02*
Y7345D01*
X7253Y7280D02*
X7312D01*
X6915Y7052D02*
X6932Y7035D01*
X5833D02*
X6932D01*
X6920D02*
Y7047D01*
X5833Y7040D02*
X6927D01*
X6123Y7180D02*
X6840D01*
X6840Y7035D02*
Y7180D01*
X6800Y7035D02*
Y7180D01*
X5880Y7320D02*
Y7425D01*
X5920Y7362D02*
Y7383D01*
X6760Y7035D02*
Y7180D01*
X6720Y7035D02*
Y7180D01*
X6680Y7035D02*
Y7180D01*
X6640Y7035D02*
Y7180D01*
X6600Y7035D02*
Y7180D01*
X6560Y7035D02*
Y7180D01*
X5833Y7400D02*
X5900D01*
X5833Y7360D02*
X5917D01*
X5833Y7320D02*
X5880D01*
X5833Y7520D02*
X5862D01*
X5833Y7480D02*
X5861D01*
X5833Y7440D02*
X5872D01*
X5833Y7280D02*
X5864D01*
X5833Y7200D02*
X5868D01*
X5840Y7035D02*
Y7965D01*
X5833Y7035D02*
Y7965D01*
Y7240D02*
X5860D01*
X6880Y7035D02*
Y7134D01*
X6520Y7035D02*
Y7180D01*
X6895Y7100D02*
Y7125D01*
X6480Y7035D02*
Y7180D01*
X6440Y7035D02*
Y7180D01*
X6400Y7035D02*
Y7180D01*
X6360Y7035D02*
Y7180D01*
X6320Y7035D02*
Y7180D01*
X6280Y7035D02*
Y7180D01*
X6240Y7035D02*
Y7180D01*
X6200Y7035D02*
Y7180D01*
X6160Y7035D02*
Y7180D01*
X6109Y7160D02*
X6853D01*
X6058Y7120D02*
X6895D01*
X5833Y7080D02*
X6898D01*
X6120Y7035D02*
Y7175D01*
X5833Y7160D02*
X5891D01*
X5833Y7120D02*
X5942D01*
X6080Y7035D02*
Y7133D01*
X6040Y7035D02*
Y7113D01*
X6000Y7035D02*
Y7107D01*
X5920Y7035D02*
Y7133D01*
X5880Y7035D02*
Y7175D01*
X5960Y7035D02*
Y7113D01*
D11*
X8193Y7312D02*
D03*
Y7153D02*
D03*
Y7853D02*
D03*
Y7693D02*
D03*
D12*
X7185Y7150D02*
D03*
D13*
X7250D02*
D03*
X7315D02*
D03*
X7380D02*
D03*
X7445D02*
D03*
X7510D02*
D03*
X7575D02*
D03*
X7640D02*
D03*
X7705D02*
D03*
X7770D02*
D03*
X7835D02*
D03*
X7900D02*
D03*
X7965D02*
D03*
X8030D02*
D03*
X7185Y7850D02*
D03*
X7250D02*
D03*
X7315D02*
D03*
X7380D02*
D03*
X7445D02*
D03*
X7510D02*
D03*
X7575D02*
D03*
X7640D02*
D03*
X7705D02*
D03*
X7770D02*
D03*
X7835D02*
D03*
X7900D02*
D03*
X7965D02*
D03*
X8030D02*
D03*
D14*
X8460Y7853D02*
D03*
Y7603D02*
D03*
Y7403D02*
D03*
Y7153D02*
D03*
D15*
X7380Y7693D02*
X7563D01*
X7380D02*
Y7853D01*
X7640Y7850D02*
Y7853D01*
X7640Y7770D02*
Y7850D01*
X7563Y7693D02*
X7640Y7770D01*
X8125Y7603D02*
X8510D01*
X8065Y7970D02*
X8100Y7935D01*
Y7628D02*
Y7935D01*
X8003Y7970D02*
X8065D01*
X7965Y7850D02*
Y7933D01*
X8003Y7970D01*
X7380Y7153D02*
Y7345D01*
X7705Y7852D02*
X7705Y7670D01*
X7380Y7345D02*
X7705Y7670D01*
X6000Y7497D02*
X7112D01*
X7185Y7425D02*
X7185Y7150D01*
X7445Y7060D02*
Y7153D01*
X6962Y7100D02*
Y7247D01*
X6000D02*
X6962D01*
X7835Y7610D02*
Y7853D01*
X7730Y7505D02*
X7835Y7610D01*
X7900Y7452D02*
Y7853D01*
X7575Y7153D02*
Y7332D01*
X7112Y7497D02*
X7185Y7425D01*
X7415Y7030D02*
X7445Y7060D01*
X7032Y7030D02*
X7415D01*
X6962Y7100D02*
X7032Y7030D01*
X8100Y7628D02*
X8125Y7603D01*
X8030Y7502D02*
Y7853D01*
X8193D02*
X8510D01*
X8040Y7312D02*
X8193D01*
X7900Y7452D02*
X8040Y7312D01*
X8130Y7403D02*
X8510D01*
X8030Y7502D02*
X8130Y7403D01*
X8193Y7153D02*
X8510D01*
D16*
X8720Y7732D02*
Y7822D01*
Y7732D02*
X8810D01*
X8720Y7643D02*
Y7732D01*
X8630D02*
X8720D01*
X7835Y7745D02*
Y7850D01*
X8193Y7693D02*
X8270D01*
X8720Y7272D02*
X8810D01*
X8720D02*
Y7362D01*
X8630Y7272D02*
X8720D01*
Y7182D02*
Y7272D01*
X8510Y7153D02*
X8610D01*
X8510D02*
Y7253D01*
X8300Y7153D02*
Y7245D01*
Y7060D02*
Y7153D01*
X8193Y7078D02*
Y7153D01*
X7380Y7745D02*
Y7850D01*
X6962Y7753D02*
Y7870D01*
Y7753D02*
X7080D01*
X6845D02*
X6962D01*
X6000D02*
Y7870D01*
Y7753D02*
X6117D01*
X5883D02*
X6000D01*
X7575Y7150D02*
Y7255D01*
D17*
X6000Y7497D02*
D03*
Y7247D02*
D03*
X6962D02*
D03*
Y7497D02*
D03*
D18*
X6000Y7753D02*
D03*
X6962D02*
D03*
D19*
X8300Y7153D02*
D03*
Y7853D02*
D03*
D20*
X8510D02*
D03*
Y7603D02*
D03*
Y7403D02*
D03*
Y7153D02*
D03*
D21*
X8720Y7272D02*
D03*
Y7732D02*
D03*
X8720Y7503D02*
D03*
X7730Y7505D02*
D03*
X7380Y7693D02*
D03*
X7575Y7332D02*
D03*
X7705Y7670D02*
D03*
M02*
